# xmcd
#
# Track frame offsets: 
#        150
#        16603
#        35310
#        62898
#        86603
#        104945
#        121262
#        145333
#        168550
#        189570
#        214302
#        229994
#        251993
#        273830
#        293671
#        314462
#        334854
#
# Disc length: 4790 seconds
#
# Revision: 0
# Processed by: cddbd v1.5.2PL0 Copyright (c) Steve Scherf et al.
# Submitted via: ExactAudioCopyFreeDBPlugin 1.0
#
DISCID=0412b411
DTITLE=Johnny Guitar Watson - And Family Clone and Bow Bow
DYEAR=2013
DGENRE=Funk
TTITLE0=Clone Information and Family Clone
TTITLE1=Forget The Joneses
TTITLE2=Ain't Movin'
TTITLE3=Come and Dance With Me
TTITLE4=Rio Dreamin'
TTITLE5=What Is Love
TTITLE6=Voodoo What You Do
TTITLE7=Johnny G Is Back
TTITLE8=Bow Wow
TTITLE9=Never Too Late
TTITLE10=My Funk
TTITLE11=It Takes 2
TTITLE12=Time Change
TTITLE13=Doing Wrong Woman
TTITLE14=What's Up With You 
TTITLE15=Hook Me Up
TTITLE16=I Don't Think So
EXTD=
EXTT0=
EXTT1=
EXTT2=
EXTT3=
EXTT4=
EXTT5=
EXTT6=
EXTT7=
EXTT8=
EXTT9=
EXTT10=
EXTT11=
EXTT12=
EXTT13=
EXTT14=
EXTT15=
EXTT16=
PLAYORDER=
